<svg xmlns="http://www.w3.org/2000/svg" version="1.1" viewBox="-5.0 -10.0 110.0 135.0">
 <path d="m59.793 84.992c0.67969 1.1211 1.4766 2.1641 2.3711 3.1133-1.5977 0.51172-3.2188 0.91797-4.8633 1.2227 0.88281-1.2109 1.7148-2.6562 2.4922-4.3359zm-2.6367-9.4688c0-0.98828 0.078125-1.9609 0.23047-2.9102-2.3867-0.14062-4.8438-0.21484-7.332-0.21484-3.3477 0-6.6289 0.13281-9.7852 0.38281 0.49219 2.2266 1.0625 4.3242 1.7031 6.2578 2.2773 6.8594 5.2656 10.957 8 10.957 2.6094 0 5.4727-3.7656 7.707-10.109-0.34375-1.3984-0.52734-2.8633-0.52734-4.3672zm-16.887-48.309c3.1562 0.25391 6.4375 0.38281 9.7852 0.38281 3.2891 0 6.5156-0.12891 9.625-0.37109-0.49219-2.2344-1.0625-4.332-1.707-6.2695-2.2773-6.8594-5.2656-10.957-8-10.957-2.7305 0-5.7227 4.0977-8 10.957-0.64062 1.9336-1.2109 4.0312-1.7031 6.2578zm-0.74609 41.75c3.3984-0.28516 6.9297-0.43359 10.531-0.43359 2.8477 0 5.6602 0.09375 8.3789 0.27344 0.66797-1.6875 1.5781-3.2539 2.6914-4.6562 0.47656-3.9336 0.75-8.0273 0.8125-12.211h-23.922c0.089844 6.0273 0.60938 11.809 1.5078 17.027zm-3.1289 4.1953c-6.1406 0.71094-11.695 1.8984-16.215 3.4922 5.7773 6.4492 13.609 11.02 22.461 12.664-1.6211-2.2305-3.0781-5.2617-4.3398-9.0586-0.72656-2.1875-1.3633-4.5664-1.9062-7.1016zm1.9062-53.426c1.2617-3.8008 2.7188-6.832 4.3398-9.0625-8.8477 1.6484-16.684 6.2148-22.457 12.664 4.5234 1.5977 10.074 2.7852 16.211 3.4961 0.54688-2.5312 1.1836-4.9141 1.9062-7.1016zm22.129 11.309c-3.3516 0.27734-6.832 0.42188-10.375 0.42188-3.6016 0-7.1328-0.14844-10.531-0.4375-0.89844 5.2227-1.418 11.004-1.5078 17.031h23.922c-0.089844-6.0234-0.60938-11.801-1.5078-17.02zm3.1289-4.1914c6.1445-0.70312 11.711-1.8828 16.246-3.4727-5.7812-6.4727-13.629-11.059-22.5-12.707 1.6211 2.2305 3.0781 5.2617 4.3398 9.0625 0.72656 2.1914 1.3672 4.5781 1.9102 7.1172zm26.418 48.668c0 7.9805-6.4922 14.477-14.477 14.477-7.9805 0-14.477-6.4922-14.477-14.477 0-7.9805 6.4922-14.469 14.477-14.469 7.9805 0 14.477 6.4922 14.477 14.469zm-12.539 5.3594c0-1.0664-0.86719-1.9336-1.9336-1.9336s-1.9336 0.86719-1.9336 1.9336 0.86719 1.9336 1.9336 1.9336 1.9336-0.86719 1.9336-1.9336zm3.4531-5.7422c-1.5547-1.1953-3.418-1.8281-5.3867-1.8281s-3.8281 0.63281-5.3867 1.8281c-0.84766 0.65234-1.0078 1.8672-0.35547 2.7148 0.65234 0.84766 1.8672 1.0078 2.7148 0.35547 0.87109-0.67188 1.9219-1.0273 3.0273-1.0273 1.1055 0 2.1523 0.35547 3.0273 1.0234 0.35156 0.26953 0.76562 0.40234 1.1797 0.40234 0.58203 0 1.1562-0.26172 1.5352-0.75781 0.65234-0.84766 0.49219-2.0625-0.35547-2.7148zm4.0859-3.9336c-2.6289-2.2734-5.9922-3.5273-9.4727-3.5273-3.4805 0-6.8438 1.2539-9.4766 3.5234-0.80859 0.69922-0.89844 1.9219-0.19922 2.7305 0.38281 0.44531 0.92188 0.67187 1.4648 0.67187 0.44922 0 0.89844-0.15625 1.2656-0.46875 1.9297-1.6641 4.3984-2.5859 6.9453-2.5859 2.5508 0 5.0156 0.91797 6.9414 2.582 0.80859 0.69922 2.0312 0.60938 2.7305-0.19922 0.69922-0.80859 0.60938-2.0312-0.19922-2.7305zm4.9531-23.141c-0.38281-8.0039-3.1289-15.398-7.5547-21.5-4.9609 1.8906-11.184 3.2891-18.086 4.0977 0.90625 5.3672 1.4297 11.27 1.5195 17.402zm-55.785 0c0.089844-6.1367 0.61328-12.047 1.5234-17.418-6.8945-0.82031-13.105-2.2266-18.051-4.1289-4.4453 6.1094-7.2031 13.523-7.5898 21.547zm-24.117 3.8711c0.38281 8.0234 3.1445 15.434 7.5898 21.539 4.9414-1.8984 11.152-3.3047 18.051-4.125-0.91016-5.3711-1.4297-11.281-1.5234-17.418l-24.121 0.007812zm55.781 0c-0.042969 2.8047-0.17578 5.5703-0.39844 8.2773 2.8984-1.9141 6.3672-3.0312 10.094-3.0312 4.8633 0 9.293 1.9023 12.578 5.0039 1.0625-3.3164 1.6797-6.7461 1.8477-10.25z" fill-rule="evenodd"/>
</svg>
