<?xml version="1.0" standalone="no"?>
<!DOCTYPE svg PUBLIC "-//W3C//DTD SVG 20010904//EN"
 "http://www.w3.org/TR/2001/REC-SVG-20010904/DTD/svg10.dtd">
<svg version="1.0" xmlns="http://www.w3.org/2000/svg"
 width="1080.000000pt" height="1080.000000pt" viewBox="0 0 1080.000000 1080.000000"
 preserveAspectRatio="xMidYMid meet">
<metadata>
Created by potrace 1.14, written by Peter Selinger 2001-2017
</metadata>
<g transform="translate(0.000000,1080.000000) scale(0.100000,-0.100000)"
fill="#000000" stroke="none">
<path d="M5427 9203 c-4 -3 -22 -7 -40 -8 -49 -2 -107 -16 -107 -26 0 -5 -6
-9 -13 -9 -23 0 -107 -75 -171 -154 -71 -87 -101 -136 -171 -276 -37 -74 -57
-117 -95 -205 -21 -51 -82 -231 -111 -330 -17 -60 -34 -117 -37 -125 -3 -8 -6
-19 -7 -25 -2 -5 -7 -28 -13 -50 -6 -22 -13 -51 -16 -65 -3 -14 -10 -42 -15
-63 -7 -28 -6 -40 2 -43 12 -4 71 -8 302 -21 253 -14 905 -7 1130 12 17 1 47
3 68 4 38 1 39 2 33 34 -4 27 -15 71 -40 167 -16 57 -27 107 -28 118 -1 6 -4
12 -8 12 -3 0 -6 8 -7 18 -1 29 -84 281 -119 360 -8 17 -21 49 -30 70 -121
276 -245 455 -378 547 -29 20 -59 37 -67 38 -8 2 -20 6 -26 10 -7 5 -13 5 -13
0 0 -4 -4 -2 -8 5 -5 7 -11 9 -15 5z"/>
<path d="M4799 9145 c-3 -2 -23 -7 -45 -11 -142 -21 -451 -119 -634 -200 -193
-85 -492 -255 -547 -310 -8 -8 -18 -14 -23 -14 -4 0 -26 -15 -48 -32 -22 -18
-55 -44 -73 -58 -69 -52 -167 -138 -237 -205 -40 -38 -77 -71 -83 -73 -5 -2
-9 -7 -9 -12 0 -4 -19 -27 -42 -51 -38 -39 -40 -43 -22 -51 25 -10 66 -25 79
-28 6 -1 21 -7 35 -12 14 -5 33 -11 44 -14 10 -2 44 -11 75 -20 97 -28 181
-50 231 -60 14 -3 42 -9 62 -15 44 -11 277 -58 328 -65 19 -2 46 -7 60 -10 14
-3 41 -8 60 -10 39 -4 117 -16 140 -20 8 -2 40 -6 70 -8 30 -2 63 -7 72 -11
17 -7 22 2 33 61 2 10 4 19 5 19 1 0 4 11 6 24 2 14 12 52 20 85 9 34 17 66
18 71 2 6 8 30 15 55 7 25 14 52 16 60 2 8 16 53 31 100 15 47 29 90 30 97 3
16 63 179 84 228 51 120 69 159 118 255 30 58 60 112 68 121 8 8 14 19 14 23
0 4 11 22 24 39 27 38 39 57 33 57 -2 0 -6 -2 -8 -5z"/>
<path d="M6003 9118 c78 -108 189 -327 257 -503 23 -60 48 -126 56 -145 8 -19
15 -44 17 -55 2 -11 9 -30 15 -42 7 -13 10 -23 8 -23 -3 0 -1 -12 5 -27 6 -16
15 -41 19 -58 4 -16 18 -66 30 -110 12 -44 24 -89 26 -100 8 -31 10 -39 17
-60 3 -11 8 -36 11 -56 3 -20 10 -48 16 -63 8 -23 15 -27 38 -22 27 5 65 10
152 21 25 3 99 15 165 26 66 11 134 22 150 24 17 3 55 10 85 17 30 6 60 12 65
13 6 1 12 3 15 4 3 1 16 4 30 6 55 8 253 56 354 86 38 11 76 22 85 24 9 2 43
13 76 25 33 12 66 22 73 23 6 0 12 4 12 8 0 8 -180 191 -250 254 -37 33 -86
74 -165 138 -93 76 -384 267 -405 267 -6 0 -10 5 -10 11 0 5 -4 7 -10 4 -5 -3
-10 -1 -10 5 0 6 -4 9 -9 5 -5 -3 -12 -1 -15 4 -6 9 -211 112 -231 115 -5 1
-36 14 -68 29 -32 15 -66 29 -75 31 -9 1 -24 6 -32 9 -54 23 -248 85 -290 93
-14 3 -34 8 -45 11 -11 4 -27 7 -35 8 -8 0 -20 3 -26 7 -6 4 -35 10 -64 13
l-53 6 16 -23z"/>
<path d="M2759 7807 c-67 -95 -139 -217 -208 -352 -52 -101 -110 -228 -111
-240 0 -3 -6 -18 -14 -34 -9 -16 -36 -91 -62 -167 -45 -136 -50 -153 -60 -204
-2 -14 -9 -36 -14 -50 -8 -22 -22 -88 -35 -163 -3 -15 -7 -39 -10 -54 -3 -16
-8 -48 -11 -73 -3 -25 -7 -52 -9 -60 -2 -8 -7 -49 -10 -90 -4 -41 -8 -91 -10
-110 -2 -20 -1 -40 3 -46 5 -6 339 -10 965 -9 l957 0 1 25 c1 14 3 75 5 135 5
181 19 430 23 430 1 0 3 34 5 75 2 41 6 93 9 115 8 53 18 148 23 210 2 28 6
64 9 80 3 17 7 46 9 65 11 85 18 135 21 140 2 3 7 31 10 63 6 51 5 57 -12 58
-10 0 -27 3 -38 5 -11 2 -40 7 -65 10 -25 3 -61 7 -80 10 -19 3 -48 7 -65 9
-16 2 -30 4 -30 5 0 1 -11 3 -25 4 -14 2 -43 6 -65 10 -22 4 -51 9 -65 12 -14
2 -36 6 -50 9 -14 3 -36 8 -50 10 -14 2 -41 7 -60 11 -19 4 -44 8 -55 9 -11 1
-27 5 -35 8 -8 4 -26 8 -40 11 -39 7 -280 67 -325 81 -22 6 -74 22 -115 35
-86 26 -80 24 -183 60 l-78 28 -50 -71z"/>
<path d="M7976 7872 c-6 -9 -155 -58 -168 -54 -5 1 -8 -2 -8 -7 0 -5 -12 -11
-27 -14 -16 -3 -53 -13 -83 -22 -63 -19 -160 -46 -175 -49 -5 -1 -19 -5 -30
-9 -11 -3 -31 -8 -45 -11 -14 -3 -52 -12 -86 -20 -34 -8 -73 -17 -87 -20 -15
-2 -62 -12 -104 -20 -142 -29 -237 -47 -283 -53 -73 -9 -162 -22 -195 -28 -11
-1 -45 -6 -75 -10 -30 -4 -58 -9 -61 -11 -4 -2 -2 -25 2 -51 13 -67 23 -143
24 -175 0 -16 2 -28 6 -28 3 0 5 -15 6 -32 0 -18 4 -51 8 -73 3 -22 8 -58 10
-80 2 -22 6 -65 10 -95 9 -87 14 -139 21 -225 10 -133 11 -154 19 -325 11
-277 12 -295 14 -300 2 -11 1921 -6 1922 5 2 16 -10 182 -16 219 -2 11 -6 41
-9 66 -3 25 -8 56 -11 70 -3 14 -7 39 -10 55 -8 59 -25 141 -39 190 -8 28 -18
64 -22 80 -9 39 -7 31 -28 100 -25 83 -126 346 -142 370 -8 11 -14 27 -14 37
0 10 -4 18 -10 18 -6 0 -9 3 -8 8 5 19 -151 296 -228 405 -19 26 -34 49 -34
52 0 13 -38 46 -44 37z"/>
<path d="M4563 7507 c-4 -6 -8 -23 -9 -37 -1 -14 -7 -54 -14 -90 -7 -36 -13
-81 -15 -100 -2 -19 -7 -55 -10 -80 -3 -25 -8 -59 -10 -76 -2 -17 -7 -57 -10
-90 -3 -32 -8 -79 -11 -104 -10 -84 -13 -122 -30 -405 -8 -142 -13 -339 -8
-355 3 -14 114 -15 956 -15 l953 0 -1 50 c-2 94 -15 400 -19 450 -2 28 -6 79
-9 115 -3 36 -9 99 -13 140 -3 41 -7 94 -7 117 -1 24 -3 43 -7 43 -3 0 -6 19
-8 43 -3 48 -8 82 -10 82 -1 0 -4 20 -5 45 -2 25 -6 59 -9 75 -3 17 -11 66
-18 110 -7 44 -17 83 -22 86 -5 4 -21 5 -36 3 -31 -4 -133 -11 -336 -21 -338
-16 -1039 -4 -1247 22 -23 3 -40 0 -45 -8z"/>
<path d="M2205 5790 c3 -30 8 -80 10 -110 6 -59 11 -102 21 -165 3 -22 7 -49
9 -60 13 -84 64 -303 73 -320 4 -5 8 -19 9 -30 2 -11 13 -46 24 -79 12 -32 23
-66 24 -75 2 -9 4 -17 5 -18 2 -2 3 -6 5 -10 12 -45 122 -295 166 -381 52 -99
100 -184 109 -192 9 -9 41 -64 47 -82 3 -10 9 -18 14 -18 5 0 9 -5 9 -10 0 -6
5 -16 10 -23 6 -7 24 -31 41 -54 l30 -42 67 26 c99 37 326 108 412 128 8 2 65
15 125 30 189 45 249 57 283 58 6 0 12 3 12 6 0 3 10 7 23 7 12 1 38 5 57 8
19 4 51 8 70 11 19 2 46 7 60 10 14 3 41 8 60 10 19 2 51 7 70 10 19 3 53 7
75 10 22 3 49 7 60 9 11 3 31 5 44 5 22 1 23 3 17 53 -4 28 -9 61 -11 72 -3
12 -7 37 -9 56 -3 19 -5 35 -6 35 -1 0 -4 20 -6 45 -6 54 -11 85 -13 85 -1 0
-4 32 -6 70 -3 39 -7 81 -10 95 -3 14 -7 54 -10 90 -9 110 -15 151 -20 161 -4
5 -1 9 5 9 6 0 8 5 5 11 -7 11 -12 70 -20 233 -2 54 -6 101 -9 103 -3 3 -1 13
4 23 5 10 6 21 2 24 -4 4 -7 53 -8 109 -1 56 -2 107 -3 112 -1 7 -309 11 -966
10 l-964 0 4 -55z"/>
<path d="M4445 5840 c-10 -18 19 -598 39 -765 2 -22 7 -69 10 -105 4 -36 8
-76 11 -90 4 -23 9 -64 20 -170 2 -19 8 -60 14 -90 6 -30 13 -69 14 -86 6 -46
13 -52 54 -48 58 5 183 13 338 21 261 13 951 6 1098 -11 27 -3 31 1 64 73 41
89 92 176 144 246 26 34 39 64 43 95 3 25 8 63 10 85 3 22 8 66 11 99 3 32 8
62 11 67 3 5 0 9 -6 9 -6 0 -9 4 -5 9 11 19 18 106 31 376 9 197 11 259 7 275
-4 13 -116 15 -954 15 -523 0 -952 -2 -954 -5z"/>
<path d="M6669 5845 c-2 0 -6 -91 -14 -290 -6 -172 -11 -243 -19 -317 -3 -27
-3 -48 0 -48 3 0 36 17 72 39 86 49 234 116 282 126 8 2 27 8 43 14 15 6 27 8
27 5 0 -2 8 0 19 5 10 6 36 12 57 15 21 2 39 5 39 6 0 3 38 9 95 16 106 14
303 9 410 -10 70 -12 128 -26 153 -35 15 -6 27 -8 27 -5 0 2 13 -2 30 -11 16
-8 33 -16 37 -16 36 -6 171 -67 253 -116 70 -41 158 -104 237 -168 l32 -27 11
39 c19 64 52 187 56 208 2 11 6 31 9 45 3 14 7 36 10 50 3 14 8 39 12 55 7 32
7 32 18 120 4 33 9 67 10 76 5 27 18 198 16 214 -1 7 -322 10 -961 10 -528 0
-961 0 -961 0z"/>
<path d="M7378 5115 c-2 -1 -32 -5 -68 -8 -141 -12 -341 -77 -431 -138 -14
-10 -29 -16 -33 -12 -3 3 -6 2 -6 -4 0 -6 -13 -16 -30 -23 -16 -7 -30 -16 -30
-21 0 -4 -9 -11 -21 -14 -28 -9 -245 -226 -254 -254 -3 -11 -11 -21 -16 -21
-5 0 -9 -7 -9 -15 0 -8 -4 -15 -8 -15 -10 0 -37 -50 -34 -62 1 -5 -2 -8 -7 -8
-4 0 -20 -28 -35 -62 -15 -35 -31 -72 -36 -83 -17 -36 -39 -110 -56 -190 -7
-29 -15 -95 -17 -135 -2 -19 -6 -41 -10 -47 -5 -7 -5 -13 0 -13 4 0 8 -30 9
-68 1 -74 10 -169 18 -192 3 -8 7 -26 10 -40 11 -60 87 -263 106 -280 3 -3 11
-15 18 -27 39 -72 46 -82 75 -114 9 -10 17 -21 17 -24 0 -5 31 -41 85 -99 69
-74 208 -174 312 -225 63 -31 186 -77 231 -86 144 -30 345 -39 462 -21 69 10
190 45 264 76 69 29 233 121 246 138 3 4 30 27 60 52 30 25 73 65 95 89 22 25
47 52 55 61 25 25 105 151 134 207 50 100 90 222 112 343 12 66 11 270 -1 348
-15 93 -41 194 -62 242 -36 84 -97 200 -105 200 -4 0 -7 4 -5 8 6 21 -162 211
-253 288 -81 68 -233 148 -357 190 -93 31 -114 36 -215 50 -40 5 -206 12 -210
9z m212 -540 c36 -5 67 -9 70 -10 3 -1 21 -5 40 -9 47 -10 127 -35 170 -53
103 -43 250 -128 250 -144 0 -5 3 -8 8 -7 14 5 91 -65 107 -98 9 -20 15 -54
13 -81 -1 -38 -9 -55 -36 -85 -64 -70 -144 -72 -232 -4 -117 90 -242 148 -375
176 -72 15 -225 20 -278 8 -20 -4 -54 -11 -75 -14 -91 -14 -257 -95 -348 -169
-20 -16 -51 -35 -68 -41 -130 -46 -249 87 -190 211 9 19 41 53 72 77 32 24 59
45 62 49 3 3 37 23 75 45 138 79 293 132 433 149 25 3 47 6 48 8 6 6 194 0
254 -8z m-33 -450 c131 -15 324 -119 359 -193 18 -39 15 -133 -5 -140 -6 -2
-11 -9 -11 -15 0 -23 -68 -59 -116 -62 -41 -3 -103 20 -124 45 -7 9 -68 36
-115 52 -61 20 -189 13 -252 -14 -15 -7 -53 -28 -83 -47 -96 -61 -179 -47
-237 39 -24 35 -30 91 -13 134 12 33 56 74 123 114 60 37 194 85 208 76 5 -3
9 -1 9 5 0 5 7 8 15 7 9 -1 35 1 58 4 41 6 100 5 184 -5z m-71 -448 c20 7 95
-70 103 -107 9 -39 -5 -104 -29 -137 -23 -32 -90 -61 -129 -57 -58 7 -108 42
-129 92 -21 49 -21 77 4 133 23 53 111 98 154 78 8 -3 20 -5 26 -2z"/>
<path d="M5068 4205 c-2 -2 -64 -6 -138 -9 -205 -9 -294 -17 -302 -24 -6 -7
40 -203 60 -253 6 -15 8 -30 5 -33 -3 -3 -1 -11 5 -18 5 -7 12 -26 15 -43 5
-31 69 -228 91 -280 7 -16 19 -46 26 -65 18 -49 55 -130 104 -230 102 -205
227 -357 342 -415 55 -28 167 -43 189 -26 5 5 21 12 35 16 70 22 180 129 261
255 27 41 52 80 57 85 12 15 113 226 123 255 4 14 22 59 39 100 31 75 34 106
15 180 -19 76 -26 335 -11 438 l7 52 -33 1 c-18 1 -45 2 -60 2 -16 0 -28 3
-28 6 0 6 -796 11 -802 6z"/>
<path d="M4256 4143 c-3 -3 -57 -11 -121 -18 -33 -3 -67 -8 -75 -10 -8 -3 -32
-7 -52 -9 -21 -3 -66 -10 -100 -17 -35 -6 -74 -13 -88 -14 -14 -2 -25 -4 -25
-5 0 -1 -9 -3 -20 -5 -62 -9 -111 -19 -205 -42 -58 -13 -114 -26 -125 -28 -11
-2 -63 -15 -115 -30 -145 -41 -183 -52 -212 -64 -16 -6 -28 -8 -28 -5 0 2 -13
-2 -29 -10 -16 -9 -31 -12 -35 -9 -3 4 -6 1 -6 -6 0 -6 10 -22 23 -34 12 -12
35 -37 50 -55 15 -19 27 -32 27 -30 0 2 36 -31 80 -73 43 -42 98 -92 121 -110
22 -19 55 -46 72 -62 18 -15 50 -39 72 -55 22 -15 45 -31 51 -37 6 -5 22 -17
34 -25 12 -8 28 -21 36 -27 7 -7 15 -13 18 -13 4 0 32 -18 64 -39 31 -21 74
-48 95 -60 20 -12 54 -31 75 -42 226 -130 489 -236 755 -305 53 -14 110 -28
125 -30 15 -3 42 -9 60 -14 l34 -9 -18 27 c-10 15 -35 56 -57 92 -21 36 -43
72 -48 80 -14 23 -111 224 -113 235 -4 14 -26 65 -43 98 -8 15 -11 27 -7 27 3
0 2 6 -4 13 -5 6 -24 57 -42 112 -18 55 -36 109 -41 120 -8 19 -28 92 -34 127
-2 10 -6 22 -9 26 -3 5 -8 22 -11 38 -8 39 -13 59 -15 59 -2 0 -7 20 -20 75
-6 25 -13 56 -16 70 -3 14 -7 32 -9 40 -2 8 -4 16 -5 18 -3 2 -7 18 -9 31 -1
7 -48 11 -55 4z"/>
<path d="M6166 3165 c-23 -54 -117 -219 -130 -227 -6 -4 -7 -8 -2 -8 5 0 0
-10 -11 -22 -11 -13 -23 -30 -26 -40 -5 -14 -1 -15 26 -7 18 4 43 10 57 13 49
10 71 15 167 41 129 35 129 35 101 67 -48 53 -88 100 -88 104 0 1 -18 28 -39
59 l-40 57 -15 -37z"/>
</g>
</svg>
